<svg width="284" height="45" viewBox="0 0 284 45" fill="none" xmlns="http://www.w3.org/2000/svg">
<path d="M0.200001 44H38L49.8 1.5H12L0.200001 44Z" fill="#0090A7"/>
<path d="M172.1 0.799988C159.4 0.799988 151.1 4.09999 151.1 22.8C151.1 41.5 159.2 44.8 172 44.8C184.8 44.8 193 41.4 193 22.7C192.9 3.99999 184.8 0.799988 172.1 0.799988ZM181.1 24.5C181.1 32.5 179.2 35.4 172.1 35.4C165.1 35.4 163 32.4 163 24.4V21C163 13 165 10.4 172 10.4C179.1 10.4 181.1 13.1 181.1 21.1V24.5Z" fill="black"/>
<path d="M225.7 29.8C230 28.5 232.2 25.2 232.2 16.9C232.2 3.4 226.6 1.5 215.6 1.5H197.2V44H208.4V10.6H215.5C218.9 10.6 220.8 11.6 220.8 17C220.8 22.3 219.2 23.5 215.5 23.5H208.8L222.7 44H235.6L225.7 29.8Z" fill="black"/>
<path d="M69.7 1.5H58.3V44H69.7V1.5Z" fill="black"/>
<path d="M102.3 23.5L86.5 1.5H75.2V44H86V19.3L103.5 44H113.1V1.5H102.3V23.5Z" fill="black"/>
<path d="M118.6 44H129.9V29.6H145.3V20.4H129.9V11.3H149V1.5H118.6V44Z" fill="black"/>
<path d="M269.5 1.5L260.9 28.7L252.3 1.5H238.2V44H248.1V18.7L256.1 44H264.9L272.8 18.7V44H283.6V1.5H269.5Z" fill="black"/>
</svg>
